REM DIRINDEX 1\2,1\3,1\4,1\5,1\6
REM DIRNAME folder01,folder02,folder03,folder04,folder05,folder06
TITLE ""
FILE "Disc3Track15.mp3" MP3
  TRACK 01 AUDIO
    TITLE "3:cjc030_04509"
    INDEX 01 00:00:00
  TRACK 02 AUDIO
    TITLE "0:"
    INDEX 01 00:02:20
  TRACK 03 AUDIO
    TITLE "4:cjc030_04510"
    INDEX 01 00:02:30
  TRACK 04 AUDIO
    TITLE "0:"
    INDEX 01 00:11:21
  TRACK 05 AUDIO
    TITLE "5:cjc030_04511"
    INDEX 01 00:11:29
  TRACK 06 AUDIO
    TITLE "0:"
    INDEX 01 00:13:57
  TRACK 07 AUDIO
    TITLE "6:cjc030_04512"
    INDEX 01 00:13:67
  TRACK 08 AUDIO
    TITLE "0:"
    INDEX 01 00:17:02
  TRACK 09 AUDIO
    TITLE "3:cjc030_04513"
    INDEX 01 00:17:51
  TRACK 10 AUDIO
    TITLE "0:"
    INDEX 01 00:20:08
  TRACK 11 AUDIO
    TITLE "4:cjc030_04514"
    INDEX 01 00:20:18
  TRACK 12 AUDIO
    TITLE "0:"
    INDEX 01 00:23:40
  TRACK 13 AUDIO
    TITLE "5:cjc030_04515"
    INDEX 01 00:23:51
  TRACK 14 AUDIO
    TITLE "0:"
    INDEX 01 00:26:07
  TRACK 15 AUDIO
    TITLE "6:cjc030_04516"
    INDEX 01 00:26:18
  TRACK 16 AUDIO
    TITLE "0:"
    INDEX 01 00:31:45
  TRACK 17 AUDIO
    TITLE "3:cjc030_04517"
    INDEX 01 00:32:17
  TRACK 18 AUDIO
    TITLE "0:"
    INDEX 01 00:33:46
  TRACK 19 AUDIO
    TITLE "4:cjc030_04518"
    INDEX 01 00:33:56
  TRACK 20 AUDIO
    TITLE "0:"
    INDEX 01 00:35:61
  TRACK 21 AUDIO
    TITLE "5:cjc030_04519"
    INDEX 01 00:35:70
  TRACK 22 AUDIO
    TITLE "0:"
    INDEX 01 00:37:22
  TRACK 23 AUDIO
    TITLE "6:cjc030_04520"
    INDEX 01 00:37:36
  TRACK 24 AUDIO
    TITLE "0:"
    INDEX 01 00:39:43
  TRACK 25 AUDIO
    TITLE "3:cjc030_04521"
    INDEX 01 00:40:17
  TRACK 26 AUDIO
    TITLE "0:"
    INDEX 01 00:41:36
  TRACK 27 AUDIO
    TITLE "4:cjc030_04522"
    INDEX 01 00:41:42
  TRACK 28 AUDIO
    TITLE "0:"
    INDEX 01 00:44:05
  TRACK 29 AUDIO
    TITLE "5:cjc030_04523"
    INDEX 01 00:44:14
  TRACK 30 AUDIO
    TITLE "0:"
    INDEX 01 00:45:35
  TRACK 31 AUDIO
    TITLE "6:cjc030_04524"
    INDEX 01 00:45:47
  TRACK 32 AUDIO
    TITLE "0:"
    INDEX 01 00:52:39
  TRACK 33 AUDIO
    TITLE "3:cjc030_04525"
    INDEX 01 00:53:11
  TRACK 34 AUDIO
    TITLE "0:"
    INDEX 01 00:54:42
  TRACK 35 AUDIO
    TITLE "4:cjc030_04526"
    INDEX 01 00:54:50
  TRACK 36 AUDIO
    TITLE "0:"
    INDEX 01 00:56:27
  TRACK 37 AUDIO
    TITLE "5:cjc030_04527"
    INDEX 01 00:56:37
  TRACK 38 AUDIO
    TITLE "0:"
    INDEX 01 00:57:66
  TRACK 39 AUDIO
    TITLE "3:cjc030_04528"
    INDEX 01 00:58:48
  TRACK 40 AUDIO
    TITLE "0:"
    INDEX 01 00:59:61
  TRACK 41 AUDIO
    TITLE "4:cjc030_04529"
    INDEX 01 00:59:73
  TRACK 42 AUDIO
    TITLE "0:"
    INDEX 01 01:01:21
  TRACK 43 AUDIO
    TITLE "5:cjc030_04530"
    INDEX 01 01:01:29
  TRACK 44 AUDIO
    TITLE "0:"
    INDEX 01 01:02:48
  TRACK 45 AUDIO
    TITLE "6:cjc030_04531"
    INDEX 01 01:02:57
  TRACK 46 AUDIO
    TITLE "0:"
    INDEX 01 01:06:51
  TRACK 47 AUDIO
    TITLE "3:cjc030_04532"
    INDEX 01 01:07:23
  TRACK 48 AUDIO
    TITLE "0:"
    INDEX 01 01:08:48
  TRACK 49 AUDIO
    TITLE "4:cjc030_04533"
    INDEX 01 01:08:56
  TRACK 50 AUDIO
    TITLE "0:"
    INDEX 01 01:09:54
  TRACK 51 AUDIO
    TITLE "5:cjc030_04534"
    INDEX 01 01:09:61
  TRACK 52 AUDIO
    TITLE "0:"
    INDEX 01 01:11:09
  TRACK 53 AUDIO
    TITLE "3:cjc030_04535"
    INDEX 01 01:11:60
  TRACK 54 AUDIO
    TITLE "0:"
    INDEX 01 01:13:04
  TRACK 55 AUDIO
    TITLE "4:cjc030_04536"
    INDEX 01 01:13:12
  TRACK 56 AUDIO
    TITLE "0:"
    INDEX 01 01:15:19
  TRACK 57 AUDIO
    TITLE "5:cjc030_04537"
    INDEX 01 01:15:29
  TRACK 58 AUDIO
    TITLE "0:"
    INDEX 01 01:16:48
  TRACK 59 AUDIO
    TITLE "6:cjc030_04538"
    INDEX 01 01:16:60
  TRACK 60 AUDIO
    TITLE "0:"
    INDEX 01 01:20:30
  TRACK 61 AUDIO
    TITLE "3:cjc030_04539"
    INDEX 01 01:21:02
  TRACK 62 AUDIO
    TITLE "0:"
    INDEX 01 01:22:23
  TRACK 63 AUDIO
    TITLE "4:cjc030_04540"
    INDEX 01 01:22:31
  TRACK 64 AUDIO
    TITLE "0:"
    INDEX 01 01:23:28
  TRACK 65 AUDIO
    TITLE "5:cjc030_04541"
    INDEX 01 01:23:38
  TRACK 66 AUDIO
    TITLE "0:"
    INDEX 01 01:24:57
  TRACK 67 AUDIO
    TITLE "3:cjc030_04542"
    INDEX 01 01:25:37
  TRACK 68 AUDIO
    TITLE "0:"
    INDEX 01 01:26:54
  TRACK 69 AUDIO
    TITLE "4:cjc030_04543"
    INDEX 01 01:26:64
  TRACK 70 AUDIO
    TITLE "0:"
    INDEX 01 01:28:59
  TRACK 71 AUDIO
    TITLE "5:cjc030_04544"
    INDEX 01 01:28:67
  TRACK 72 AUDIO
    TITLE "0:"
    INDEX 01 01:30:13
  TRACK 73 AUDIO
    TITLE "6:cjc030_04545"
    INDEX 01 01:30:22
  TRACK 74 AUDIO
    TITLE "0:"
    INDEX 01 01:34:50
  TRACK 75 AUDIO
    TITLE "3:cjc030_04546"
    INDEX 01 01:35:22
  TRACK 76 AUDIO
    TITLE "0:"
    INDEX 01 01:36:33
  TRACK 77 AUDIO
    TITLE "4:cjc030_04547"
    INDEX 01 01:36:41
  TRACK 78 AUDIO
    TITLE "0:"
    INDEX 01 01:38:20
  TRACK 79 AUDIO
    TITLE "5:cjc030_04548"
    INDEX 01 01:38:30
  TRACK 80 AUDIO
    TITLE "0:"
    INDEX 01 01:39:37
